<svg width="20" height="20" viewBox="0 0 20 20" fill="none" xmlns="http://www.w3.org/2000/svg">
<path d="M10 3.74802C5.83337 3.74802 2.27504 6.33968 0.833374 9.99802C2.27504 13.6563 5.83337 16.248 10 16.248C14.1667 16.248 17.725 13.6563 19.1667 9.99802C17.725 6.33968 14.1667 3.74802 10 3.74802ZM10 14.1647C7.70004 14.1647 5.83337 12.298 5.83337 9.99802C5.83337 7.69802 7.70004 5.83135 10 5.83135C12.3 5.83135 14.1667 7.69802 14.1667 9.99802C14.1667 12.298 12.3 14.1647 10 14.1647ZM10 7.49802C8.61671 7.49802 7.50004 8.61468 7.50004 9.99802C7.50004 11.3813 8.61671 12.498 10 12.498C11.3834 12.498 12.5 11.3813 12.5 9.99802C12.5 8.61468 11.3834 7.49802 10 7.49802Z" fill="#929599"/>
</svg>
